<mxfile host="app.diagrams.net" modified="2022-10-03T00:46:38.846Z" agent="5.0 (Windows NT 10.0; Win64; x64) AppleWebKit/537.36 (KHTML, like Gecko) Chrome/106.0.0.0 Safari/537.36" etag="xR5A8OHp-bzhDCWCsVQD" version="20.4.0" type="github">
  <diagram id="nu77yf3zYERCAOEitH3A" name="Страница 1">
    <mxGraphModel dx="1422" dy="794" grid="1" gridSize="10" guides="1" tooltips="1" connect="1" arrows="1" fold="1" page="1" pageScale="1" pageWidth="827" pageHeight="1169" math="0" shadow="0">
      <root>
        <mxCell id="0" />
        <mxCell id="1" parent="0" />
        <mxCell id="FvaoAB-RVnVViRDjeii2-2" value="" style="edgeStyle=orthogonalEdgeStyle;rounded=0;orthogonalLoop=1;jettySize=auto;html=1;fontSize=15;fontColor=#000000;fontStyle=0" parent="1" target="FvaoAB-RVnVViRDjeii2-5" edge="1">
          <mxGeometry relative="1" as="geometry">
            <mxPoint x="434" y="200" as="sourcePoint" />
          </mxGeometry>
        </mxCell>
        <mxCell id="FvaoAB-RVnVViRDjeii2-4" value="" style="edgeStyle=orthogonalEdgeStyle;rounded=0;orthogonalLoop=1;jettySize=auto;html=1;fontSize=15;fontColor=#000000;fontStyle=0" parent="1" source="FvaoAB-RVnVViRDjeii2-5" target="FvaoAB-RVnVViRDjeii2-7" edge="1">
          <mxGeometry relative="1" as="geometry" />
        </mxCell>
        <mxCell id="FvaoAB-RVnVViRDjeii2-5" value="&lt;font style=&quot;font-size: 15px;&quot; color=&quot;#000000&quot;&gt;arrayStart&lt;br style=&quot;font-size: 15px;&quot;&gt;&lt;/font&gt;&lt;span style=&quot;color: rgb(0, 0, 0); font-size: 15px;&quot;&gt;arrayFinal&lt;/span&gt;&lt;font style=&quot;font-size: 15px;&quot; color=&quot;#000000&quot;&gt;&lt;br style=&quot;font-size: 15px;&quot;&gt;&lt;br style=&quot;font-size: 15px;&quot;&gt;&lt;/font&gt;" style="shape=parallelogram;perimeter=parallelogramPerimeter;whiteSpace=wrap;html=1;fixedSize=1;fontSize=15;fontColor=#0000CC;fontStyle=0" parent="1" vertex="1">
          <mxGeometry x="319" y="250" width="230" height="80" as="geometry" />
        </mxCell>
        <mxCell id="FvaoAB-RVnVViRDjeii2-6" value="" style="edgeStyle=orthogonalEdgeStyle;rounded=0;orthogonalLoop=1;jettySize=auto;html=1;fontSize=15;fontColor=#000000;fontStyle=0" parent="1" source="FvaoAB-RVnVViRDjeii2-7" edge="1">
          <mxGeometry relative="1" as="geometry">
            <mxPoint x="434" y="540" as="targetPoint" />
          </mxGeometry>
        </mxCell>
        <mxCell id="FvaoAB-RVnVViRDjeii2-7" value="&lt;font style=&quot;font-size: 15px;&quot; color=&quot;#000000&quot;&gt;count = 0&lt;br style=&quot;font-size: 15px;&quot;&gt;i = 0&lt;br style=&quot;font-size: 15px;&quot;&gt;&lt;/font&gt;" style="rounded=0;whiteSpace=wrap;html=1;fontSize=15;fontColor=#0000CC;fontStyle=0" parent="1" vertex="1">
          <mxGeometry x="359" y="400" width="150" height="80" as="geometry" />
        </mxCell>
        <mxCell id="FvaoAB-RVnVViRDjeii2-49" style="edgeStyle=orthogonalEdgeStyle;rounded=0;orthogonalLoop=1;jettySize=auto;html=1;exitX=0;exitY=0.5;exitDx=0;exitDy=0;entryX=1;entryY=0.5;entryDx=0;entryDy=0;fontFamily=Helvetica;fontSize=15;fontColor=#000000;fontStyle=0" parent="1" source="FvaoAB-RVnVViRDjeii2-16" target="FvaoAB-RVnVViRDjeii2-47" edge="1">
          <mxGeometry relative="1" as="geometry" />
        </mxCell>
        <mxCell id="FvaoAB-RVnVViRDjeii2-16" value="count++" style="rounded=0;whiteSpace=wrap;html=1;fontSize=15;fontColor=#000000;fontStyle=0" parent="1" vertex="1">
          <mxGeometry x="371.5" y="1080" width="120" height="60" as="geometry" />
        </mxCell>
        <mxCell id="FvaoAB-RVnVViRDjeii2-23" value="&lt;font style=&quot;font-size: 15px;&quot;&gt;ResultArray&lt;/font&gt;" style="rounded=1;whiteSpace=wrap;html=1;labelBackgroundColor=none;fontColor=#000000;fontSize=15;fontStyle=0" parent="1" vertex="1">
          <mxGeometry x="364" y="120" width="140" height="80" as="geometry" />
        </mxCell>
        <mxCell id="FvaoAB-RVnVViRDjeii2-41" style="edgeStyle=orthogonalEdgeStyle;rounded=0;orthogonalLoop=1;jettySize=auto;html=1;exitX=0.5;exitY=1;exitDx=0;exitDy=0;entryX=0.5;entryY=0;entryDx=0;entryDy=0;fontFamily=Helvetica;fontSize=15;fontColor=#000000;fontStyle=0" parent="1" source="FvaoAB-RVnVViRDjeii2-28" target="FvaoAB-RVnVViRDjeii2-29" edge="1">
          <mxGeometry relative="1" as="geometry" />
        </mxCell>
        <mxCell id="FvaoAB-RVnVViRDjeii2-42" value="yes" style="edgeLabel;html=1;align=center;verticalAlign=middle;resizable=0;points=[];fontSize=15;fontFamily=Helvetica;fontColor=#000000;fontStyle=0" parent="FvaoAB-RVnVViRDjeii2-41" vertex="1" connectable="0">
          <mxGeometry x="-0.3571" relative="1" as="geometry">
            <mxPoint as="offset" />
          </mxGeometry>
        </mxCell>
        <mxCell id="FvaoAB-RVnVViRDjeii2-53" style="edgeStyle=orthogonalEdgeStyle;rounded=0;orthogonalLoop=1;jettySize=auto;html=1;exitX=1;exitY=0.5;exitDx=0;exitDy=0;entryX=0;entryY=0.5;entryDx=0;entryDy=0;fontFamily=Helvetica;fontSize=15;fontColor=#000000;fontStyle=0" parent="1" source="FvaoAB-RVnVViRDjeii2-28" edge="1">
          <mxGeometry relative="1" as="geometry">
            <mxPoint x="664" y="585" as="targetPoint" />
          </mxGeometry>
        </mxCell>
        <mxCell id="FvaoAB-RVnVViRDjeii2-54" value="no" style="edgeLabel;html=1;align=center;verticalAlign=middle;resizable=0;points=[];fontSize=15;fontFamily=Helvetica;fontColor=#000000;fontStyle=0" parent="FvaoAB-RVnVViRDjeii2-53" vertex="1" connectable="0">
          <mxGeometry x="-0.6286" y="1" relative="1" as="geometry">
            <mxPoint as="offset" />
          </mxGeometry>
        </mxCell>
        <mxCell id="FvaoAB-RVnVViRDjeii2-28" value="&amp;nbsp;i &amp;lt; arrayStart.Length" style="rhombus;whiteSpace=wrap;html=1;labelBackgroundColor=#FFFFFF;fontFamily=Helvetica;fontSize=15;fontColor=#000000;fontStyle=0" parent="1" vertex="1">
          <mxGeometry x="319" y="540" width="225" height="90" as="geometry" />
        </mxCell>
        <mxCell id="FvaoAB-RVnVViRDjeii2-43" style="edgeStyle=orthogonalEdgeStyle;rounded=0;orthogonalLoop=1;jettySize=auto;html=1;exitX=0.5;exitY=1;exitDx=0;exitDy=0;entryX=0.5;entryY=0;entryDx=0;entryDy=0;fontFamily=Helvetica;fontSize=15;fontColor=#000000;fontStyle=0" parent="1" source="FvaoAB-RVnVViRDjeii2-29" target="FvaoAB-RVnVViRDjeii2-30" edge="1">
          <mxGeometry relative="1" as="geometry" />
        </mxCell>
        <mxCell id="FvaoAB-RVnVViRDjeii2-44" value="yes" style="edgeLabel;html=1;align=center;verticalAlign=middle;resizable=0;points=[];fontSize=15;fontFamily=Helvetica;fontColor=#000000;fontStyle=0" parent="FvaoAB-RVnVViRDjeii2-43" vertex="1" connectable="0">
          <mxGeometry x="-0.3429" y="2" relative="1" as="geometry">
            <mxPoint as="offset" />
          </mxGeometry>
        </mxCell>
        <mxCell id="FvaoAB-RVnVViRDjeii2-55" style="edgeStyle=orthogonalEdgeStyle;rounded=0;orthogonalLoop=1;jettySize=auto;html=1;exitX=0;exitY=0.5;exitDx=0;exitDy=0;entryX=0.575;entryY=-0.033;entryDx=0;entryDy=0;entryPerimeter=0;fontFamily=Helvetica;fontSize=15;fontColor=#000000;fontStyle=0" parent="1" source="FvaoAB-RVnVViRDjeii2-29" target="FvaoAB-RVnVViRDjeii2-47" edge="1">
          <mxGeometry relative="1" as="geometry" />
        </mxCell>
        <mxCell id="FvaoAB-RVnVViRDjeii2-56" value="no" style="edgeLabel;html=1;align=center;verticalAlign=middle;resizable=0;points=[];fontSize=15;fontFamily=Helvetica;fontColor=#000000;fontStyle=0" parent="FvaoAB-RVnVViRDjeii2-55" vertex="1" connectable="0">
          <mxGeometry x="-0.1473" y="1" relative="1" as="geometry">
            <mxPoint as="offset" />
          </mxGeometry>
        </mxCell>
        <mxCell id="FvaoAB-RVnVViRDjeii2-29" value="arrayStart[i].Length &amp;lt;= 3" style="rhombus;whiteSpace=wrap;html=1;labelBackgroundColor=#FFFFFF;fontFamily=Helvetica;fontSize=15;fontColor=#000000;fontStyle=0" parent="1" vertex="1">
          <mxGeometry x="316.5" y="730" width="230" height="100" as="geometry" />
        </mxCell>
        <mxCell id="FvaoAB-RVnVViRDjeii2-57" style="edgeStyle=orthogonalEdgeStyle;rounded=0;orthogonalLoop=1;jettySize=auto;html=1;exitX=0.5;exitY=1;exitDx=0;exitDy=0;entryX=0.5;entryY=0;entryDx=0;entryDy=0;fontFamily=Helvetica;fontSize=15;fontColor=#000000;fontStyle=0" parent="1" source="FvaoAB-RVnVViRDjeii2-30" target="FvaoAB-RVnVViRDjeii2-16" edge="1">
          <mxGeometry relative="1" as="geometry" />
        </mxCell>
        <mxCell id="FvaoAB-RVnVViRDjeii2-30" value="arrayFinal[count] = arrayStart[i]&amp;nbsp;" style="rounded=0;whiteSpace=wrap;html=1;labelBackgroundColor=#FFFFFF;fontFamily=Helvetica;fontSize=15;fontColor=#000000;fontStyle=0" parent="1" vertex="1">
          <mxGeometry x="321.5" y="940" width="220" height="60" as="geometry" />
        </mxCell>
        <mxCell id="FvaoAB-RVnVViRDjeii2-48" style="edgeStyle=orthogonalEdgeStyle;rounded=0;orthogonalLoop=1;jettySize=auto;html=1;exitX=0;exitY=0.5;exitDx=0;exitDy=0;entryX=0;entryY=0.5;entryDx=0;entryDy=0;fontFamily=Helvetica;fontSize=15;fontColor=#000000;fontStyle=0" parent="1" source="FvaoAB-RVnVViRDjeii2-47" target="FvaoAB-RVnVViRDjeii2-28" edge="1">
          <mxGeometry relative="1" as="geometry" />
        </mxCell>
        <mxCell id="FvaoAB-RVnVViRDjeii2-47" value="i++" style="rounded=0;whiteSpace=wrap;html=1;fontSize=15;fontColor=#000000;fontStyle=0" parent="1" vertex="1">
          <mxGeometry x="164" y="1080" width="120" height="60" as="geometry" />
        </mxCell>
        <mxCell id="FvaoAB-RVnVViRDjeii2-50" value="End function" style="ellipse;whiteSpace=wrap;html=1;labelBackgroundColor=#FFFFFF;fontFamily=Helvetica;fontSize=15;fontColor=#000000;fontStyle=0" parent="1" vertex="1">
          <mxGeometry x="660" y="545" width="120" height="80" as="geometry" />
        </mxCell>
        <mxCell id="FvaoAB-RVnVViRDjeii2-52" style="edgeStyle=orthogonalEdgeStyle;rounded=0;orthogonalLoop=1;jettySize=auto;html=1;exitX=0.5;exitY=1;exitDx=0;exitDy=0;entryX=0.5;entryY=0;entryDx=0;entryDy=0;fontFamily=Helvetica;fontSize=15;fontColor=#000000;fontStyle=0" parent="1" source="FvaoAB-RVnVViRDjeii2-51" target="FvaoAB-RVnVViRDjeii2-23" edge="1">
          <mxGeometry relative="1" as="geometry" />
        </mxCell>
        <mxCell id="FvaoAB-RVnVViRDjeii2-51" value="Start function" style="ellipse;whiteSpace=wrap;html=1;labelBackgroundColor=#FFFFFF;fontFamily=Helvetica;fontSize=15;fontColor=#000000;fontStyle=0" parent="1" vertex="1">
          <mxGeometry x="374" width="120" height="80" as="geometry" />
        </mxCell>
      </root>
    </mxGraphModel>
  </diagram>
</mxfile>
